<svg width="924" height="309" viewBox="0 0 924 309" fill="none" xmlns="http://www.w3.org/2000/svg">
<path d="M888.889 308.56H34.1881C15.3848 308.56 0 291.204 0 269.99V38.5702C0 17.3565 15.3845 0 34.1881 0H888.888C907.692 0 923.077 17.3565 923.077 38.5702V269.99C923.077 291.204 907.692 308.56 888.889 308.56Z" fill="black"/>
<path d="M888.815 0H34.1852C15.3836 0 0 17.3565 0 38.5702V269.99C0 291.204 15.3833 308.56 34.1852 308.56H888.815C907.616 308.56 923 291.204 923 269.99V38.5702C923 17.3565 907.617 0 888.815 0ZM888.815 6.17101C904.65 6.17101 917.53 20.7075 917.53 38.5702V269.99C917.53 287.856 904.649 302.392 888.815 302.392H34.1852C18.3535 302.392 5.46969 287.856 5.46969 269.99V38.5702C5.46969 20.7075 18.3532 6.17135 34.1852 6.17135H888.815" fill="#A6A6A6"/>
<path d="M324.228 87.1536C324.228 92.8915 322.532 97.4608 319.134 100.869C315.275 104.922 310.245 106.95 304.062 106.95C298.14 106.95 293.106 104.896 288.966 100.781C284.818 96.6691 282.748 91.5702 282.748 85.4866C282.748 79.4002 284.818 74.3044 288.966 70.1892C293.106 66.0776 298.14 64.02 304.062 64.02C307 64.02 309.813 64.5956 312.484 65.7434C315.154 66.8939 317.297 68.4212 318.899 70.3338L315.293 73.948C312.577 70.6976 308.838 69.0737 304.062 69.0737C299.743 69.0737 296.009 70.5936 292.858 73.6352C289.705 76.68 288.13 80.6284 288.13 85.4866C288.13 90.3451 289.705 94.2932 292.858 97.3383C296.009 100.38 299.743 101.899 304.062 101.899C308.643 101.899 312.462 100.372 315.52 97.3115C317.505 95.3179 318.653 92.5468 318.96 88.9884H304.061V84.0526H323.942C324.134 85.1259 324.227 86.1557 324.227 87.1536" fill="white"/>
<path d="M324.228 87.1534H323.544C323.538 92.7605 321.903 97.1155 318.65 100.385L318.643 100.39L318.64 100.396C314.903 104.309 310.1 106.257 304.061 106.265C298.298 106.257 293.474 104.288 289.446 100.297C285.427 96.2971 283.439 91.4145 283.431 85.4864C283.439 79.5555 285.427 74.6757 289.446 70.679C293.474 66.6847 298.298 64.713 304.061 64.7047C306.911 64.7047 309.625 65.2618 312.213 66.3717C314.804 67.4902 316.85 68.9559 318.375 70.7756L318.899 70.3336L318.415 69.8495L314.809 73.4661L315.293 73.9478L315.819 73.5095C312.977 70.0982 308.987 68.3785 304.061 68.3887C299.583 68.3831 295.643 69.9861 292.384 73.1432C289.094 76.3104 287.44 80.481 287.446 85.4864C287.44 90.4921 289.094 94.6624 292.384 97.8299C295.643 100.987 299.583 102.59 304.061 102.584C308.794 102.592 312.828 100.984 316.003 97.7954C318.124 95.6655 319.326 92.7153 319.641 89.047L319.705 88.3033H304.745V84.7372H323.942V84.0524L323.268 84.1727C323.455 85.2112 323.544 86.198 323.544 87.1534H324.911C324.911 86.1124 324.815 85.0425 324.614 83.9299L324.513 83.3675H303.378V89.673H318.96V88.9882L318.279 88.9294C317.977 92.3755 316.882 94.9705 315.036 96.8274C312.099 99.7592 308.493 101.206 304.061 101.214C299.903 101.209 296.375 99.7749 293.333 96.8456C290.32 93.9268 288.821 90.2003 288.813 85.4864C288.821 80.7725 290.32 77.046 293.333 74.1272C296.375 71.1979 299.903 69.7639 304.061 69.7584C308.685 69.7694 312.176 71.2995 314.77 74.3894L315.251 74.9619L319.382 70.8181L319.826 70.3742L319.422 69.8947C317.742 67.8888 315.504 66.2966 312.753 65.1146C309.997 63.929 307.088 63.335 304.061 63.335C297.983 63.3297 292.737 65.4698 288.482 69.7051C284.211 73.9321 282.059 79.2452 282.064 85.4864C282.059 91.7248 284.211 97.041 288.485 101.27C292.737 105.503 297.983 107.641 304.061 107.635C310.392 107.641 315.643 105.535 319.628 101.342L319.133 100.869L319.617 101.354C323.159 97.8087 324.916 93.02 324.911 87.1534H324.228ZM355.744 69.9886H337.061V83.0176H353.91V87.9552H337.061V100.984H355.744V106.032H331.794V64.9404H355.744V69.9886Z" fill="white"/>
<path d="M355.745 69.9889V69.304H336.378V83.7027H353.227V87.2688L336.378 87.2706V101.669H355.061V105.348H332.479V65.6255H355.061V69.9889H355.745H356.429V64.2559H331.111V106.717H356.429V100.3H337.746V88.6403H354.594V82.333H337.746V70.6737H356.429V69.9889H355.745ZM377.975 106.033H372.7V69.9885H361.242V64.9404H389.434V69.9885H377.975V106.032" fill="white"/>
<path d="M377.976 106.033V105.348H373.384V69.304H361.926V65.6259H388.751V69.304H377.292V106.033H377.976H378.66V70.6737H390.118V64.2559H360.559V70.6734H372.017V106.717H378.66V106.032H377.976M409.832 106.033V64.9404H415.102V106.032H409.832" fill="white"/>
<path d="M409.832 106.033H410.516V65.6255H414.418V105.348H409.832V106.033V106.717H415.785V64.2559H409.148V106.717H409.832V106.033M438.486 106.033H433.211V69.9885H421.753V64.9404H449.944V69.9885H438.486V106.032" fill="white"/>
<path d="M438.485 106.033V105.348H433.894V69.3039H422.436V65.6258H449.26V69.3039H437.801V106.033H438.485H439.169V70.6736H450.627V64.2558H421.068V70.6733H432.526V106.717H439.169V106.032H438.485M477.123 97.2822C480.16 100.361 483.875 101.899 488.269 101.899C492.663 101.899 496.38 100.361 499.412 97.2822C502.452 94.203 503.974 90.267 503.974 85.4866C503.974 80.7065 502.452 76.7704 499.412 73.6913C496.38 70.6121 492.663 69.0737 488.269 69.0737C483.875 69.0737 480.16 70.6121 477.123 73.6913C474.091 76.7704 472.569 80.7062 472.569 85.4866C472.569 90.267 474.091 94.203 477.123 97.2822ZM503.312 100.722C499.278 104.876 494.262 106.95 488.269 106.95C482.27 106.95 477.256 104.876 473.232 100.722C469.196 96.5725 467.187 91.4929 467.187 85.4866C467.187 79.4803 469.196 74.3998 473.232 70.251C477.256 66.0958 482.27 64.02 488.269 64.02C494.231 64.02 499.233 66.1069 503.285 70.2778C507.331 74.4484 509.356 79.5178 509.356 85.4866C509.356 91.4929 507.336 96.5725 503.312 100.722Z" fill="white"/>
<path d="M477.123 97.282L476.637 97.7634C479.787 100.966 483.716 102.592 488.269 102.584C492.82 102.592 496.755 100.966 499.899 97.7634C503.069 94.5581 504.663 90.4114 504.658 85.4864C504.663 80.5617 503.069 76.4147 499.899 73.2094C496.755 70.0071 492.82 68.3807 488.269 68.3887C483.716 68.3807 479.787 70.0071 476.637 73.2094C473.475 76.4147 471.877 80.5617 471.886 85.4864C471.877 90.4111 473.475 94.5581 476.637 97.7634L477.123 97.282L477.61 96.8003C474.709 93.844 473.259 90.1252 473.253 85.4864C473.259 80.8479 474.709 77.1291 477.609 74.1725C480.537 71.2167 484.033 69.7667 488.269 69.7587C492.502 69.7667 496.007 71.2167 498.926 74.1725C501.832 77.1291 503.283 80.8479 503.288 85.4864C503.283 90.1249 501.832 93.844 498.926 96.8003C496.007 99.7564 492.503 101.206 488.269 101.214C484.033 101.206 480.537 99.7564 477.61 96.8003L477.123 97.282ZM503.312 100.722L502.823 100.246C498.902 104.27 494.108 106.257 488.269 106.265C482.428 106.257 477.633 104.27 473.72 100.246C469.808 96.2088 467.877 91.3401 467.871 85.4864C467.877 79.6327 469.808 74.764 473.72 70.727C477.633 66.7032 482.428 64.713 488.269 64.705C494.07 64.713 498.854 66.7115 502.796 70.7562C506.723 74.8121 508.665 79.6731 508.673 85.4864C508.665 91.3401 506.728 96.2088 502.823 100.246L503.312 100.722L503.804 101.198C507.949 96.9339 510.045 91.6448 510.04 85.4864C510.045 79.3631 507.941 74.0847 503.776 69.8018C499.61 65.5019 494.391 63.3276 488.269 63.335C482.116 63.3276 476.881 65.4917 472.74 69.775V69.7719C468.587 74.0389 466.498 79.328 466.504 85.4864C466.498 91.6448 468.587 96.9339 472.74 101.201L472.759 101.22L472.74 101.198C476.881 105.481 482.116 107.641 488.269 107.635C494.42 107.641 499.655 105.481 503.804 101.198L503.312 100.722ZM516.755 106.033V64.9401H523.171L543.109 96.9068H543.336L543.109 88.9879V64.9401H548.384V106.032H542.882L522.022 72.5162H521.795L522.022 80.4379V106.032H516.755" fill="white"/>
<path d="M516.754 106.033H517.438V65.6255H522.791L542.729 97.5923H544.038L543.792 88.9783V65.6259H547.7V105.348H543.261L522.401 71.8319H521.092L521.337 80.4496V105.348H516.754V106.033V106.717H522.705V80.4277L522.478 72.4983L521.794 72.5168V73.2016H522.021V72.5168L521.441 72.8809L542.502 106.717H549.067V64.2559H542.425V88.9965L542.652 96.9259L543.336 96.9074V96.2226H543.108V96.9074L543.688 96.5439L523.549 64.2559H516.071V106.717H516.754V106.033M731.186 222.46H743.945V136.844H731.186L731.186 222.46ZM846.105 167.685L831.48 204.804H831.042L815.863 167.684H802.119L824.881 219.565L811.904 248.423H825.216L860.293 167.684L846.105 167.685ZM773.75 212.736C769.565 212.736 763.74 210.643 763.74 205.464C763.74 198.856 771.001 196.323 777.264 196.323C782.878 196.323 785.511 197.534 788.922 199.188C787.931 207.118 781.114 212.736 773.75 212.736ZM775.288 165.811C766.05 165.811 756.485 169.888 752.526 178.92L763.849 183.656C766.269 178.92 770.775 177.377 775.507 177.377C782.105 177.377 788.813 181.344 788.922 188.393V189.274C786.611 187.952 781.668 185.97 775.616 185.97C763.411 185.97 750.981 192.687 750.981 205.245C750.981 216.7 760.991 224.081 772.204 224.081C780.786 224.081 785.511 220.226 788.485 215.711H788.922V222.318H801.237V189.493C801.237 174.295 789.914 165.811 775.288 165.811ZM696.437 178.107H678.29V148.76H696.437C705.976 148.76 711.391 156.67 711.391 163.433C711.391 170.068 705.975 178.107 696.437 178.107ZM696.109 136.844H665.538V222.46H678.29V190.023H696.109C710.249 190.023 724.15 179.768 724.15 163.433C724.15 147.098 710.249 136.844 696.109 136.844ZM529.401 212.751C520.587 212.751 513.207 205.36 513.207 195.207C513.207 184.948 520.587 177.444 529.401 177.444C538.103 177.444 544.933 184.948 544.933 195.207C544.933 205.36 538.103 212.751 529.401 212.751ZM544.051 172.479H543.61C540.747 169.059 535.237 165.97 528.298 165.97C513.757 165.97 500.43 178.768 500.43 195.207C500.43 211.537 513.757 224.226 528.298 224.226C535.237 224.226 540.747 221.135 543.61 217.607H544.051V221.799C544.051 232.945 538.103 238.902 528.52 238.902C520.699 238.902 515.852 233.273 513.867 228.53L502.743 233.164C505.937 240.887 514.42 250.377 528.52 250.377C543.501 250.377 556.169 241.548 556.169 220.034V167.735H544.051V172.479ZM564.981 222.46H577.759V136.84H564.981V222.46ZM596.596 194.215C596.265 182.96 605.298 177.224 611.797 177.224C616.868 177.224 621.162 179.76 622.591 183.404L596.596 194.215ZM636.253 184.506C633.832 177.994 626.447 165.97 611.356 165.97C596.375 165.97 583.928 177.775 583.928 195.098C583.928 211.428 596.265 224.226 612.788 224.226C626.119 224.226 633.832 216.061 637.025 211.317L627.11 204.696C623.808 209.552 619.288 212.751 612.788 212.751C606.289 212.751 601.664 209.771 598.688 203.925L637.572 187.815L636.253 184.506ZM326.453 174.907V187.264H355.974C355.093 194.215 352.779 199.29 349.254 202.821C344.959 207.125 338.239 211.869 326.452 211.869C308.276 211.869 294.067 197.195 294.067 178.989C294.067 160.785 308.276 146.109 326.453 146.109C336.257 146.109 343.415 149.971 348.704 154.936L357.406 146.221C350.026 139.158 340.221 133.751 326.453 133.751C301.556 133.751 280.627 154.054 280.627 178.989C280.627 203.925 301.556 224.226 326.453 224.226C339.893 224.226 350.026 219.814 357.956 211.537C366.108 203.372 368.643 191.898 368.643 182.631C368.643 179.76 368.423 177.114 367.98 174.907H326.453ZM402.206 212.751C393.392 212.751 385.79 205.469 385.79 195.098C385.79 184.616 393.392 177.444 402.206 177.444C411.017 177.444 418.618 184.616 418.618 195.098C418.618 205.469 411.017 212.751 402.206 212.751ZM402.206 165.97C386.121 165.97 373.012 178.216 373.012 195.098C373.012 211.869 386.121 224.226 402.206 224.226C418.287 224.226 431.396 211.869 431.396 195.098C431.396 178.216 418.287 165.97 402.206 165.97ZM465.886 212.751C457.075 212.751 449.473 205.469 449.473 195.098C449.473 184.616 457.075 177.444 465.886 177.444C474.697 177.444 482.299 184.616 482.299 195.098C482.299 205.469 474.697 212.751 465.886 212.751ZM465.886 165.97C449.802 165.97 436.696 178.216 436.696 195.098C436.696 211.869 449.802 224.226 465.886 224.226C481.968 224.226 495.077 211.869 495.077 195.098C495.077 178.216 481.968 165.97 465.886 165.97Z" fill="white"/>
<path d="M71.8538 69.1275C69.5591 71.2011 68.1895 74.6598 68.1895 79.2509V78.213V229.713V228.715C68.1895 232.955 69.3643 236.229 71.3539 238.338L71.8618 238.825V238.827C73.4721 240.283 75.5371 241.056 77.9038 241.053C80.2163 241.053 82.818 240.315 85.5639 238.755L184.813 182.272L218.905 162.869C223.234 160.405 225.665 157.227 226.071 153.989V153.976C225.665 150.731 223.234 147.556 218.905 145.092L184.81 125.69L85.5642 69.2075C82.8125 67.6455 80.2089 66.9043 77.8902 66.9043C75.5264 66.9043 73.4641 67.6747 71.8544 69.1275H71.8538Z" fill="#00C1FF"/>
<path d="M71.8621 238.825L71.3539 238.338C69.3643 236.229 68.1895 232.955 68.1895 228.715V229.713V78.2503V79.2506C68.1895 74.6596 69.5591 71.2009 71.8538 69.1273L156.57 153.979L71.8621 238.825Z" fill="url(#paint0_linear_248_1357)"/>
<path d="M184.813 182.272L156.57 153.979L184.811 125.69L218.905 145.091C223.234 147.555 225.665 150.731 226.071 153.976V153.989C225.665 157.226 223.234 160.405 218.905 162.868L184.813 182.272" fill="url(#paint1_linear_248_1357)"/>
<path d="M77.9027 241.053C75.5364 241.055 73.4714 240.282 71.8613 238.826V238.824L156.57 153.978L184.812 182.271L85.5628 238.755C82.817 240.314 80.2152 241.053 77.9027 241.053Z" fill="url(#paint2_linear_248_1357)"/>
<path d="M156.571 153.979L71.8535 69.1275C73.4639 67.6747 75.5261 66.9043 77.8897 66.9043C80.2083 66.9043 82.8123 67.6452 85.5636 69.2075L184.81 125.69L156.57 153.979" fill="url(#paint3_linear_248_1357)"/>
<path d="M77.9056 242.056C75.5392 242.056 73.4715 241.283 71.8611 239.828L71.8583 239.83C71.8517 239.824 71.8446 239.817 71.8371 239.812L71.3966 239.381C71.3828 239.367 71.3698 239.352 71.3535 239.336L71.8614 238.827C73.4718 240.282 75.5365 241.056 77.9034 241.053C80.2156 241.053 82.8174 240.315 85.5632 238.755L184.812 182.272L185.448 182.909L184.804 183.276L85.5629 239.755C83.0605 241.176 80.6803 241.917 78.5304 242.04C78.3223 242.051 78.1139 242.056 77.9056 242.056Z" fill="url(#paint4_linear_248_1357)"/>
<path d="M71.3539 239.336C69.3643 237.228 68.1895 233.956 68.1895 229.713V228.715C68.1895 232.955 69.3643 236.229 71.3539 238.338L71.8618 238.825L71.3539 239.336Z" fill="url(#paint5_linear_248_1357)"/>
<path d="M185.448 182.909L184.812 182.272L218.904 162.868C223.234 160.405 225.664 157.226 226.071 153.989C226.071 155.177 225.806 156.365 225.28 157.521C224.22 159.851 222.094 162.053 218.904 163.869L185.448 182.909" fill="url(#paint6_linear_248_1357)"/>
<path d="M226.071 153.977C225.665 150.731 223.234 147.556 218.905 145.092L184.811 125.691L185.446 125.054H185.449L218.905 144.094C223.678 146.812 226.069 150.394 226.071 153.977Z" fill="url(#paint7_linear_248_1357)"/>
<path d="M68.1895 79.2505V78.204C68.1895 77.8266 68.1996 77.4576 68.219 77.0993V77.083C68.219 77.0781 68.219 77.0728 68.2208 77.0673V77.027C68.4268 73.375 69.5591 70.5263 71.3539 68.6242L71.8538 69.1268C69.5591 71.2007 68.1895 74.6594 68.1895 79.2505Z" fill="url(#paint8_linear_248_1357)"/>
<path d="M184.81 125.69L85.5632 69.2069C82.8118 67.6448 80.2082 66.904 77.8896 66.904C75.5257 66.904 73.4635 67.6744 71.8534 69.1272L71.3535 68.6242C71.5096 68.4587 71.6718 68.2991 71.8398 68.1456C71.8451 68.1401 71.8534 68.1345 71.8586 68.1293C73.4561 66.6876 75.4964 65.9172 77.8391 65.9033H77.8896C80.2082 65.9033 82.8118 66.6445 85.5632 68.2072L185.448 125.051L185.446 125.053L184.81 125.69Z" fill="url(#paint9_linear_248_1357)"/>
<defs>
<linearGradient id="paint0_linear_248_1357" x1="122.329" y1="76.6495" x2="49.3217" y2="149.774" gradientUnits="userSpaceOnUse">
<stop stop-color="#00A0FF"/>
<stop offset="0.00657" stop-color="#00A1FF"/>
<stop offset="0.2601" stop-color="#00BEFF"/>
<stop offset="0.5122" stop-color="#00D2FF"/>
<stop offset="0.7604" stop-color="#00DFFF"/>
<stop offset="1" stop-color="#00E3FF"/>
</linearGradient>
<linearGradient id="paint1_linear_248_1357" x1="231.346" y1="153.49" x2="65.8967" y2="153.49" gradientUnits="userSpaceOnUse">
<stop stop-color="#FFE000"/>
<stop offset="0.4087" stop-color="#FFBD00"/>
<stop offset="0.7754" stop-color="#FFA500"/>
<stop offset="1" stop-color="#FF9C00"/>
</linearGradient>
<linearGradient id="paint2_linear_248_1357" x1="169.818" y1="180.878" x2="46.1025" y2="303.888" gradientUnits="userSpaceOnUse">
<stop stop-color="#FF3A44"/>
<stop offset="1" stop-color="#C31162"/>
</linearGradient>
<linearGradient id="paint3_linear_248_1357" x1="50.0196" y1="56.5479" x2="105.157" y2="111.455" gradientUnits="userSpaceOnUse">
<stop stop-color="#32A071"/>
<stop offset="0.0685" stop-color="#2DA771"/>
<stop offset="0.4762" stop-color="#15CF74"/>
<stop offset="0.8009" stop-color="#06E775"/>
<stop offset="1" stop-color="#00F076"/>
</linearGradient>
<linearGradient id="paint4_linear_248_1357" x1="169.757" y1="200.505" x2="70.679" y2="299.742" gradientUnits="userSpaceOnUse">
<stop stop-color="#CC2E36"/>
<stop offset="1" stop-color="#9C0E4E"/>
</linearGradient>
<linearGradient id="paint5_linear_248_1357" x1="79.475" y1="76.6496" x2="15.157" y2="141.072" gradientUnits="userSpaceOnUse">
<stop stop-color="#008DE0"/>
<stop offset="0.00657" stop-color="#008DE0"/>
<stop offset="0.2601" stop-color="#00A7E0"/>
<stop offset="0.5122" stop-color="#00B8E0"/>
<stop offset="0.7604" stop-color="#00C4E0"/>
<stop offset="1" stop-color="#00C7E0"/>
</linearGradient>
<linearGradient id="paint6_linear_248_1357" x1="231.346" y1="153.983" x2="65.8961" y2="153.983" gradientUnits="userSpaceOnUse">
<stop stop-color="#E0C500"/>
<stop offset="0.4087" stop-color="#E0A600"/>
<stop offset="0.7754" stop-color="#E09100"/>
<stop offset="1" stop-color="#E08900"/>
</linearGradient>
<linearGradient id="paint7_linear_248_1357" x1="231.347" y1="153.983" x2="65.8974" y2="153.983" gradientUnits="userSpaceOnUse">
<stop stop-color="#FFE840"/>
<stop offset="0.4087" stop-color="#FFCE40"/>
<stop offset="0.7754" stop-color="#FFBC40"/>
<stop offset="1" stop-color="#FFB540"/>
</linearGradient>
<linearGradient id="paint8_linear_248_1357" x1="79.4052" y1="76.7657" x2="17.4556" y2="136.127" gradientUnits="userSpaceOnUse">
<stop stop-color="#40B8FF"/>
<stop offset="0.00657" stop-color="#40B9FF"/>
<stop offset="0.2601" stop-color="#40CEFF"/>
<stop offset="0.5122" stop-color="#40DDFF"/>
<stop offset="0.7604" stop-color="#40E7FF"/>
<stop offset="1" stop-color="#40EAFF"/>
</linearGradient>
<linearGradient id="paint9_linear_248_1357" x1="49.8957" y1="74.492" x2="94.1382" y2="118.806" gradientUnits="userSpaceOnUse">
<stop stop-color="#65B895"/>
<stop offset="0.0685" stop-color="#62BD95"/>
<stop offset="0.4762" stop-color="#50DB97"/>
<stop offset="0.8009" stop-color="#44ED98"/>
<stop offset="1" stop-color="#40F498"/>
</linearGradient>
</defs>
</svg>
