<svg width="924" height="309" viewBox="0 0 924 309" fill="none" xmlns="http://www.w3.org/2000/svg">
<path d="M849.569 0.00077139H73.5497C70.721 0.00077139 67.9263 0.000771389 65.1045 0.0161992C62.7433 0.031627 60.4006 0.0763676 58.0162 0.114166C52.8365 0.175095 47.6689 0.630764 42.5584 1.47721C37.455 2.34209 32.5115 3.97268 27.895 6.31383C23.2844 8.67489 19.0715 11.7428 15.4093 15.4062C11.7278 19.059 8.65897 23.2812 6.32077 27.9104C3.97607 32.5309 2.35029 37.4821 1.49958 42.5931C0.640724 47.6974 0.178564 52.8606 0.117251 58.0363C0.045512 60.4014 0.0377981 62.7742 0 65.14V243.441C0.0377981 245.836 0.045512 248.156 0.117251 250.553C0.178622 255.728 0.640782 260.891 1.49958 265.995C2.34801 271.108 3.97388 276.062 6.32077 280.684C8.65785 285.299 11.7271 289.504 15.4093 293.137C19.0576 296.816 23.2732 299.886 27.895 302.229C32.5114 304.576 37.4544 306.217 42.5584 307.095C47.6697 307.935 52.8368 308.391 58.0162 308.459C60.3998 308.511 62.7433 308.541 65.1053 308.541C67.9263 308.557 70.721 308.557 73.5497 308.557H849.568C852.341 308.557 855.158 308.557 857.93 308.541C860.281 308.541 862.692 308.511 865.042 308.459C870.212 308.394 875.369 307.938 880.47 307.095C885.59 306.211 890.551 304.571 895.19 302.229C899.807 299.885 904.019 296.815 907.665 293.137C911.337 289.49 914.413 285.287 916.779 280.684C919.108 276.059 920.718 271.105 921.554 265.995C922.415 260.89 922.893 255.728 922.987 250.552C923.018 248.156 923.018 245.836 923.018 243.441C923.079 240.638 923.079 237.851 923.079 235.003V73.5621C923.079 70.7365 923.079 67.9348 923.018 65.14C923.018 62.7742 923.018 60.4014 922.987 58.0355C922.894 52.8594 922.415 47.6973 921.555 42.5923C920.716 37.4848 919.106 32.5345 916.779 27.9112C912.018 18.6317 904.467 11.0782 895.19 6.31306C890.551 3.97765 885.59 2.34749 880.47 1.47644C875.37 0.626393 870.212 0.170694 865.042 0.113394C862.692 0.0755962 860.281 0.0300842 857.93 0.0154278C855.158 0 852.342 0.00077139 849.569 0.00077139Z" fill="#A6A6A6"/>
<path d="M65.1425 301.807C62.7921 301.807 60.4987 301.777 58.1668 301.725C53.3363 301.662 48.5172 301.242 43.7488 300.468C39.3024 299.701 34.9952 298.277 30.9691 296.24C26.9798 294.221 23.3413 291.573 20.1928 288.398C16.9986 285.261 14.3392 281.622 12.32 277.626C10.2788 273.604 8.86622 269.293 8.13136 264.842C7.33805 260.061 6.90895 255.226 6.84777 250.379C6.7984 248.752 6.73438 243.336 6.73438 243.336V65.1396C6.73438 65.1396 6.80226 59.8062 6.84777 58.2387C6.90655 53.3999 7.33333 48.5725 8.12442 43.7983C8.86072 39.336 10.2745 35.0123 12.3169 30.977C14.3283 26.9836 16.9726 23.3418 20.1473 20.193C23.3186 17.0143 26.969 14.3528 30.9653 12.3056C34.9822 10.276 39.2814 8.86168 43.7187 8.10996C48.5028 7.32793 53.3388 6.90531 58.1861 6.84565L65.1463 6.75H857.894L864.937 6.84797C869.74 6.90503 874.532 7.32431 879.273 8.10225C883.755 8.86361 888.099 10.288 892.162 12.3287C900.168 16.4544 906.682 22.9816 910.791 30.9956C912.801 35.0032 914.193 39.2918 914.92 43.7158C915.72 48.529 916.168 53.3942 916.26 58.2727C916.283 60.4573 916.283 62.8038 916.283 65.1396C916.345 68.0323 916.345 70.7854 916.345 73.5616V235.003C916.345 237.805 916.345 240.54 916.283 243.297C916.283 245.805 916.283 248.103 916.253 250.468C916.162 255.26 915.721 260.039 914.933 264.766C914.214 269.248 912.809 273.593 910.768 277.648C908.735 281.601 906.091 285.208 902.935 288.337C899.783 291.529 896.138 294.193 892.14 296.225C888.088 298.277 883.75 299.706 879.273 300.466C874.505 301.245 869.685 301.665 864.854 301.724C862.547 301.778 860.239 301.806 857.932 301.807L849.57 301.822L65.1425 301.807Z" fill="black"/>
<path d="M191.065 156.598C191.148 150.16 192.859 143.847 196.037 138.247C199.215 132.647 203.758 127.942 209.243 124.57C205.759 119.593 201.162 115.498 195.817 112.609C190.473 109.719 184.529 108.116 178.456 107.926C165.502 106.566 152.945 115.677 146.343 115.677C139.615 115.677 129.452 108.061 118.509 108.286C111.43 108.515 104.531 110.573 98.4838 114.261C92.4369 117.948 87.4484 123.139 84.0043 129.328C69.0856 155.158 80.2137 193.118 94.5052 213.997C101.655 224.221 110.011 235.64 120.945 235.235C131.645 234.792 135.64 228.412 148.556 228.412C161.352 228.412 165.101 235.235 176.257 234.978C187.738 234.792 194.972 224.709 201.871 214.388C207.008 207.104 210.961 199.053 213.584 190.533C206.914 187.712 201.221 182.99 197.217 176.955C193.213 170.92 191.073 163.841 191.065 156.598ZM169.994 94.1943C176.254 86.6794 179.338 77.0202 178.591 67.2681C169.027 68.2726 160.193 72.8435 153.848 80.0701C150.746 83.6005 148.37 87.7077 146.856 92.1569C145.343 96.606 144.721 101.31 145.026 106C149.81 106.049 154.542 105.012 158.867 102.967C163.192 100.922 166.997 97.9227 169.994 94.1943ZM326.316 209.354H289.803L281.035 235.244H265.569L300.154 139.453H316.222L350.806 235.244H335.077L326.316 209.354ZM293.585 197.406H322.527L308.26 155.386H307.86L293.585 197.406ZM425.497 200.329C425.497 222.031 413.881 235.975 396.352 235.975C391.911 236.207 387.495 235.185 383.608 233.024C379.722 230.863 376.523 227.651 374.377 223.756H374.045V258.348H359.71V165.405H373.586V177.022H373.85C376.095 173.146 379.348 169.951 383.264 167.776C387.179 165.602 391.611 164.53 396.088 164.675C413.813 164.675 425.497 178.687 425.497 200.329ZM410.762 200.329C410.762 186.189 403.455 176.893 392.306 176.893C381.353 176.893 373.986 186.385 373.986 200.328C373.986 214.401 381.353 223.825 392.306 223.825C403.455 223.825 410.762 214.597 410.762 200.329ZM502.365 200.329C502.365 222.031 490.749 235.975 473.219 235.975C468.779 236.207 464.362 235.184 460.476 233.023C456.59 230.862 453.391 227.651 451.245 223.756H450.914V258.348H436.578V165.405H450.454V177.022H450.718C452.962 173.146 456.215 169.951 460.131 167.776C464.047 165.602 468.479 164.53 472.955 164.675C490.681 164.675 502.365 178.687 502.365 200.329ZM487.63 200.329C487.63 186.189 480.323 176.893 469.174 176.893C458.22 176.893 450.853 186.385 450.853 200.328C450.853 214.401 458.22 223.825 469.174 223.825C480.323 223.825 487.63 214.597 487.63 200.329ZM553.168 208.555C554.231 218.054 563.459 224.292 576.069 224.292C588.152 224.292 596.845 218.054 596.845 209.489C596.845 202.053 591.602 197.601 579.188 194.551L566.773 191.56C549.183 187.311 541.017 179.085 541.017 165.736C541.017 149.208 555.421 137.857 575.873 137.857C596.114 137.857 609.99 149.208 610.457 165.736H595.986C595.12 156.177 587.217 150.406 575.669 150.406C564.121 150.406 556.219 156.245 556.219 164.742C556.219 171.515 561.266 175.5 573.612 178.55L584.167 181.142C603.82 185.789 611.987 193.684 611.987 207.695C611.987 225.617 597.711 236.841 575.006 236.841C553.762 236.841 539.42 225.88 538.493 208.554L553.168 208.555ZM642.925 148.878V165.405H656.206V176.758H642.925V215.259C642.925 221.241 645.584 224.028 651.423 224.028C652.999 224 654.573 223.889 656.138 223.696V234.981C653.513 235.472 650.845 235.693 648.176 235.643C634.036 235.643 628.521 230.333 628.521 216.788V176.758H618.367V165.405H628.521V148.878H642.925ZM663.898 200.329C663.898 178.354 676.839 164.547 697.021 164.547C717.27 164.547 730.151 178.354 730.151 200.329C730.151 222.363 717.337 236.111 697.02 236.111C676.711 236.111 663.898 222.363 663.898 200.329ZM715.544 200.329C715.544 185.255 708.637 176.358 697.02 176.358C685.405 176.358 678.504 185.322 678.504 200.329C678.504 215.463 685.405 224.292 697.02 224.292C708.637 224.292 715.544 215.463 715.544 200.329ZM741.97 165.405H755.643V177.292H755.974C756.9 173.58 759.075 170.299 762.134 168.001C765.193 165.703 768.95 164.529 772.774 164.675C774.426 164.669 776.073 164.848 777.685 165.209V178.618C775.6 177.981 773.424 177.688 771.244 177.752C769.162 177.668 767.085 178.035 765.158 178.828C763.231 179.622 761.498 180.823 760.079 182.35C758.66 183.876 757.588 185.692 756.937 187.672C756.285 189.652 756.07 191.749 756.306 193.82V235.244H741.97V165.405ZM843.78 214.732C841.852 227.41 829.505 236.111 813.708 236.111C793.391 236.111 780.781 222.499 780.781 200.66C780.781 178.754 793.459 164.547 813.105 164.547C832.428 164.547 844.579 177.82 844.579 198.995V203.907H795.252V204.773C795.024 207.343 795.346 209.933 796.196 212.369C797.046 214.805 798.404 217.033 800.181 218.904C801.958 220.775 804.113 222.247 806.502 223.221C808.891 224.195 811.461 224.65 814.039 224.555C817.427 224.873 820.827 224.088 823.733 222.318C826.639 220.548 828.896 217.888 830.168 214.732H843.78ZM795.32 193.888H830.235C830.364 191.577 830.014 189.264 829.206 187.095C828.399 184.926 827.152 182.947 825.543 181.282C823.935 179.618 822 178.304 819.859 177.423C817.719 176.542 815.419 176.112 813.105 176.162C810.771 176.148 808.457 176.597 806.296 177.482C804.136 178.367 802.173 179.671 800.519 181.319C798.866 182.967 797.555 184.927 796.663 187.084C795.77 189.241 795.314 191.553 795.32 193.888ZM291.788 67.3507C294.794 67.135 297.81 67.589 300.618 68.68C303.427 69.771 305.959 71.4718 308.031 73.6598C310.102 75.8477 311.663 78.4682 312.599 81.3322C313.536 84.1962 313.825 87.2323 313.446 90.2216C313.446 104.926 305.498 113.379 291.788 113.379H275.162V67.3499L291.788 67.3507ZM282.312 106.869H290.99C293.137 106.997 295.286 106.645 297.281 105.838C299.275 105.031 301.064 103.789 302.518 102.204C303.972 100.618 305.054 98.7281 305.686 96.6715C306.317 94.6149 306.482 92.4434 306.168 90.315C306.459 88.195 306.278 86.0369 305.637 83.9953C304.995 81.9538 303.911 80.0793 302.46 78.5062C301.009 76.9331 299.229 75.7003 297.246 74.8962C295.263 74.0921 293.126 73.7366 290.99 73.855H282.312V106.869ZM321.521 95.9955C321.303 93.7128 321.564 91.4097 322.288 89.2338C323.012 87.0579 324.182 85.0574 325.725 83.3604C327.267 81.6635 329.147 80.3076 331.244 79.3798C333.341 78.452 335.609 77.9727 337.902 77.9727C340.195 77.9727 342.463 78.452 344.56 79.3798C346.657 80.3076 348.537 81.6635 350.079 83.3604C351.621 85.0574 352.792 87.0579 353.516 89.2338C354.24 91.4097 354.501 93.7128 354.282 95.9955C354.506 98.2808 354.248 100.588 353.526 102.767C352.805 104.947 351.635 106.952 350.092 108.653C348.549 110.354 346.668 111.713 344.568 112.643C342.469 113.573 340.198 114.053 337.902 114.053C335.606 114.053 333.335 113.573 331.235 112.643C329.136 111.713 327.254 110.354 325.712 108.653C324.169 106.952 322.999 104.947 322.277 102.767C321.556 100.588 321.298 98.2808 321.521 95.9955ZM347.232 95.9955C347.232 88.4659 343.849 84.0629 337.913 84.0629C331.954 84.0629 328.603 88.4659 328.603 95.9955C328.603 103.585 331.955 107.954 337.913 107.954C343.849 107.954 347.232 103.555 347.232 95.9955ZM397.832 113.378H390.72L383.541 87.7956H382.999L375.85 113.378H368.807L359.232 78.6423H366.185L372.408 105.147H372.92L380.061 78.6423H386.638L393.779 105.147H394.321L400.513 78.6423H407.369L397.832 113.378ZM415.421 78.6431H422.02V84.1608H422.533C423.402 82.1788 424.867 80.5173 426.725 79.4079C428.584 78.2986 430.742 77.7966 432.899 77.972C434.589 77.8449 436.286 78.0998 437.864 78.7177C439.442 79.3355 440.861 80.3006 442.016 81.5413C443.17 82.782 444.031 84.2666 444.534 85.8851C445.037 87.5036 445.169 89.2146 444.921 90.8912V113.377H438.066V92.6129C438.066 87.0312 435.64 84.2549 430.571 84.2549C429.423 84.2016 428.278 84.3969 427.213 84.8276C426.148 85.2583 425.189 85.9141 424.401 86.7502C423.613 87.5862 423.015 88.5827 422.649 89.6713C422.282 90.76 422.155 91.915 422.277 93.0573V113.378H415.421V78.6431ZM455.844 65.0828H462.699V113.378H455.844V65.0828ZM472.229 95.9955C472.01 93.7125 472.271 91.409 472.995 89.2329C473.719 87.0567 474.89 85.0559 476.433 83.3587C477.975 81.6615 479.855 80.3055 481.953 79.3776C484.05 78.4496 486.318 77.9703 488.611 77.9703C490.905 77.9703 493.173 78.4496 495.27 79.3776C497.368 80.3055 499.248 81.6615 500.79 83.3587C502.333 85.0559 503.504 87.0567 504.228 89.2329C504.952 91.409 505.213 93.7125 504.994 95.9955C505.216 98.2805 504.958 100.587 504.235 102.766C503.513 104.945 502.343 106.949 500.8 108.649C499.257 110.349 497.376 111.708 495.277 112.637C493.178 113.567 490.907 114.047 488.611 114.047C486.316 114.047 484.045 113.567 481.946 112.637C479.847 111.708 477.966 110.349 476.423 108.649C474.88 106.949 473.71 104.945 472.987 102.766C472.265 100.587 472.007 98.2805 472.229 95.9955ZM497.939 95.9955C497.939 88.4659 494.557 84.0629 488.621 84.0629C482.662 84.0629 479.31 88.4659 479.31 95.9955C479.31 103.585 482.663 107.954 488.621 107.954C494.557 107.954 497.939 103.555 497.939 95.9955ZM512.211 103.555C512.211 97.3022 516.866 93.6975 525.13 93.1853L534.538 92.643V89.6446C534.538 85.9759 532.113 83.9047 527.428 83.9047C523.601 83.9047 520.949 85.3094 520.188 87.7655H513.551C514.252 81.7988 519.864 77.9727 527.744 77.9727C536.452 77.9727 541.364 82.3079 541.364 89.6446V113.378H534.764V108.497H534.222C533.121 110.248 531.576 111.675 529.743 112.633C527.91 113.591 525.855 114.046 523.789 113.95C522.331 114.102 520.857 113.946 519.463 113.494C518.069 113.041 516.784 112.301 515.694 111.322C514.603 110.342 513.729 109.145 513.129 107.807C512.529 106.47 512.216 105.021 512.211 103.555ZM534.538 100.587V97.6825L526.056 98.2248C521.273 98.5449 519.103 100.173 519.103 103.234C519.103 106.361 521.815 108.18 525.544 108.18C526.637 108.291 527.741 108.181 528.79 107.856C529.839 107.531 530.812 106.999 531.651 106.29C532.49 105.582 533.178 104.712 533.674 103.732C534.17 102.752 534.464 101.683 534.538 100.587ZM550.374 95.9955C550.374 85.0194 556.016 78.0668 564.792 78.0668C566.962 77.9668 569.117 78.4867 571.003 79.5658C572.89 80.6449 574.43 82.2387 575.444 84.1608H575.956V65.082H582.811V113.377H576.242V107.889H575.7C574.608 109.798 573.014 111.372 571.091 112.44C569.169 113.509 566.99 114.031 564.792 113.95C555.955 113.95 550.374 106.997 550.374 95.9955ZM557.455 95.9955C557.455 103.362 560.928 107.796 566.735 107.796C572.512 107.796 576.084 103.299 576.084 96.0248C576.084 88.7861 572.475 84.2248 566.735 84.2248C560.965 84.2248 557.455 88.6881 557.455 95.9955ZM611.173 95.9955C610.955 93.7128 611.216 91.4097 611.939 89.2338C612.663 87.0579 613.834 85.0574 615.376 83.3604C616.919 81.6635 618.799 80.3076 620.896 79.3798C622.993 78.452 625.26 77.9727 627.553 77.9727C629.847 77.9727 632.114 78.452 634.211 79.3798C636.308 80.3076 638.188 81.6635 639.731 83.3604C641.273 85.0574 642.444 87.0579 643.167 89.2338C643.891 91.4097 644.152 93.7128 643.934 95.9955C644.157 98.2808 643.9 100.588 643.178 102.767C642.456 104.947 641.286 106.952 639.744 108.653C638.201 110.354 636.319 111.713 634.22 112.643C632.12 113.573 629.85 114.053 627.553 114.053C625.257 114.053 622.986 113.573 620.887 112.643C618.788 111.713 616.906 110.354 615.363 108.653C613.82 106.952 612.651 104.947 611.929 102.767C611.207 100.588 610.95 98.2808 611.173 95.9955ZM636.883 95.9955C636.883 88.4659 633.501 84.0629 627.565 84.0629C621.606 84.0629 618.254 88.4659 618.254 95.9955C618.254 103.585 621.607 107.954 627.565 107.954C633.501 107.954 636.883 103.555 636.883 95.9955ZM653.132 78.6431H659.731V84.1608H660.243C661.112 82.1788 662.578 80.5173 664.436 79.4079C666.294 78.2986 668.452 77.7966 670.609 77.972C672.299 77.8449 673.996 78.0998 675.575 78.7177C677.153 79.3355 678.572 80.3006 679.727 81.5413C680.881 82.782 681.742 84.2666 682.245 85.8851C682.748 87.5036 682.88 89.2146 682.632 90.8912V113.377H675.777V92.6129C675.777 87.0312 673.351 84.2549 668.281 84.2549C667.134 84.2016 665.988 84.3969 664.923 84.8276C663.859 85.2583 662.899 85.9141 662.112 86.7502C661.324 87.5862 660.726 88.5827 660.359 89.6713C659.993 90.76 659.866 91.915 659.987 93.0573V113.378H653.133L653.132 78.6431ZM721.368 69.995V78.8012H728.893V84.5751H721.368V102.436C721.368 106.074 722.866 107.668 726.279 107.668C727.153 107.665 728.025 107.612 728.893 107.509V113.22C727.661 113.44 726.414 113.557 725.164 113.57C717.541 113.57 714.505 110.888 714.505 104.192V84.5751H708.991V78.8004H714.505V69.9958L721.368 69.995ZM738.256 65.0828H745.052V84.2248H745.594C746.505 82.2244 748.011 80.5535 749.906 79.44C751.802 78.3264 753.994 77.8243 756.185 78.002C757.866 77.9105 759.547 78.1912 761.108 78.8241C762.668 79.457 764.07 80.4265 765.212 81.6634C766.355 82.9003 767.21 84.3742 767.718 85.9798C768.225 87.5854 768.372 89.2832 768.148 90.9521V113.378H761.286V92.643C761.286 87.0944 758.701 84.285 753.858 84.285C752.68 84.1885 751.495 84.3505 750.385 84.7597C749.276 85.169 748.27 85.8157 747.437 86.6544C746.604 87.4932 745.964 88.5039 745.563 89.6157C745.161 90.7275 745.007 91.9137 745.112 93.0912V113.378H738.256V65.0828ZM808.119 103.999C807.188 107.173 805.17 109.92 802.418 111.757C799.667 113.594 796.357 114.405 793.068 114.048C790.779 114.109 788.505 113.67 786.403 112.764C784.301 111.857 782.421 110.504 780.894 108.798C779.368 107.092 778.231 105.075 777.562 102.885C776.893 100.696 776.709 98.3874 777.022 96.1197C776.717 93.8449 776.904 91.5312 777.572 89.3351C778.239 87.1391 779.37 85.112 780.888 83.3912C782.407 81.6703 784.278 80.2959 786.374 79.3609C788.47 78.426 790.742 77.9523 793.037 77.972C802.702 77.972 808.533 84.5751 808.533 95.4825V97.8746H784.005V98.2587C783.898 99.5334 784.058 100.816 784.476 102.026C784.893 103.235 785.559 104.343 786.43 105.28C787.301 106.217 788.358 106.962 789.533 107.466C790.709 107.971 791.977 108.224 793.256 108.21C794.896 108.407 796.557 108.111 798.028 107.361C799.5 106.612 800.715 105.441 801.52 103.999H808.119ZM784.005 92.805H801.55C801.636 91.6392 801.478 90.4683 801.085 89.3674C800.691 88.2665 800.072 87.26 799.267 86.4126C798.462 85.5652 797.488 84.8955 796.409 84.4468C795.33 83.998 794.168 83.78 793 83.8067C791.814 83.7918 790.637 84.0144 789.539 84.4614C788.441 84.9083 787.443 85.5707 786.605 86.4093C785.767 87.2479 785.105 88.2458 784.658 89.3442C784.212 90.4427 783.99 91.6194 784.005 92.805Z" fill="white"/>
</svg>
