<svg width="249" height="105" viewBox="0 0 249 105" fill="none" xmlns="http://www.w3.org/2000/svg">
<g clip-path="url(#clip0_14_69)">
<path d="M8.54084 48.8124C11.6841 50.847 15.368 52.8083 19.5377 54.3434V2.14917C19.5377 0.962317 18.5754 0 17.3887 0H8.37589C7.18915 0 6.22693 0.962317 6.22693 2.14917V44.5507C6.22693 46.2737 7.09751 47.8775 8.54542 48.8124H8.54084Z" fill="#6063FD"/>
<path d="M6.22693 73.3469V100.975C6.22693 102.161 7.18915 103.124 8.37589 103.124H17.3887C18.5754 103.124 19.5377 102.161 19.5377 100.975V79.3774C14.9419 77.3061 11.1343 74.6758 8.28883 72.3616C7.45949 71.688 6.22693 72.2837 6.22693 73.3469Z" fill="#6063FD"/>
<path d="M67.0805 44.4224V2.14917C67.0805 0.962317 66.1183 0 64.9315 0H55.9187C54.732 0 53.7698 0.962317 53.7698 2.14917V54.1143C57.4216 52.7487 61.0597 50.957 64.6749 48.7436C66.1733 47.8271 67.0851 46.182 67.0851 44.4224H67.0805Z" fill="#6063FD"/>
<path d="M65.0599 72.5083C61.2981 75.2577 57.5271 77.4757 53.7653 79.1528V100.975C53.7653 102.161 54.7275 103.124 55.9142 103.124H64.927C66.1138 103.124 67.076 102.161 67.076 100.975V73.5256C67.076 72.4899 65.8984 71.8942 65.0599 72.5083Z" fill="#6063FD"/>
<path d="M73.2158 55.8923L71.0623 53.7385C70.6041 53.2803 69.8801 53.239 69.367 53.6377C64.5238 57.3862 59.5386 60.7176 54.2738 63.128C53.5819 63.4579 52.8901 63.797 52.1707 64.0399L50.095 64.851C50.0676 64.8601 50.0355 64.8739 50.008 64.8831L47.8957 65.5338C47.5383 65.6392 47.1855 65.7766 46.8189 65.8545L45.7284 66.0974C44.2988 66.4778 42.8463 66.6611 41.3984 66.881C41.3709 66.881 41.3388 66.8902 41.3113 66.8902L39.1532 67.0643C38.4201 67.1376 37.6824 67.0826 36.9493 67.1056C31.066 67.0781 25.1781 65.6163 19.6109 63.0547C16.8297 61.7762 14.1034 60.2685 11.4916 58.5363C10.1766 57.684 8.89364 56.7721 7.63817 55.819C7.00585 55.347 6.38728 54.8612 5.78245 54.3617C5.47088 54.1189 5.17763 53.8668 4.87522 53.6194C4.3941 53.2115 3.69306 53.2115 3.21195 53.6194L0.453578 55.9656C-0.0687703 56.4101 -0.151246 57.1937 0.27488 57.7344C0.595621 58.1468 0.911779 58.5272 1.24627 58.9304C1.82818 59.6132 2.42384 60.2685 3.03325 60.9146C4.24748 62.2161 5.56252 63.4075 6.90046 64.5852C9.62217 66.8764 12.5592 68.9706 15.7392 70.7074C18.9145 72.4533 22.3235 73.8647 25.8929 74.8316C29.4623 75.8031 33.192 76.3071 36.9309 76.3117C37.8657 76.2796 38.805 76.3117 39.7351 76.2155L42.4752 75.9451C42.5072 75.9451 42.5439 75.936 42.576 75.9314C44.395 75.6014 46.2232 75.3082 47.9782 74.7628L49.3161 74.3871C49.7606 74.2634 50.1867 74.0801 50.622 73.9288C51.4742 73.6172 52.3219 73.3056 53.1604 72.9711C53.1879 72.9619 53.2154 72.9482 53.2429 72.9344C54.8787 72.1554 56.5603 71.4543 58.0815 70.5057C64.0152 67.0964 69.1195 62.6606 73.3029 57.6153C73.7244 57.1066 73.6786 56.3597 73.2158 55.8923Z" fill="#3269F4"/>
<path d="M74.87 47.1581C74.87 43.0018 78.0866 39.7391 82.4395 39.7391C86.7924 39.7391 90.0089 42.8048 90.0089 46.8648C90.0089 51.2182 86.8886 54.5817 82.4395 54.5817C77.9903 54.5817 74.87 51.3144 74.87 47.1627V47.1581Z" fill="#3269F4"/>
<path d="M86.3342 62.1244H78.5493C77.5751 62.1244 76.7853 62.9143 76.7853 63.8887V101.355C76.7853 102.329 77.5751 103.119 78.5493 103.119H86.3342C87.3084 103.119 88.0983 102.329 88.0983 101.355V63.8887C88.0983 62.9143 87.3084 62.1244 86.3342 62.1244Z" fill="#6063FD"/>
<path d="M225.485 42.4382H217.7C216.726 42.4382 215.936 43.228 215.936 44.2024V101.272C215.936 102.247 216.726 103.037 217.7 103.037H225.485C226.459 103.037 227.249 102.247 227.249 101.272V44.2024C227.249 43.228 226.459 42.4382 225.485 42.4382Z" fill="#6063FD"/>
<path d="M247.231 42.4382H239.446C238.472 42.4382 237.682 43.228 237.682 44.2024V101.272C237.682 102.247 238.472 103.037 239.446 103.037H247.231C248.206 103.037 248.995 102.247 248.995 101.272V44.2024C248.995 43.228 248.206 42.4382 247.231 42.4382Z" fill="#6063FD"/>
<path d="M138.67 103.018L129.199 77.7552C129.139 77.5948 128.91 77.5948 128.851 77.7552L119.238 103.027C119.031 103.573 118.509 103.935 117.923 103.935H109.482C108.891 103.935 108.364 103.568 108.163 103.014L93.5417 64.5989C93.2026 63.6825 93.8853 62.7064 94.8613 62.7064H102.738C103.333 62.7064 103.86 63.0776 104.062 63.6412L113.95 89.8391L124.264 63.6229C124.47 63.073 124.993 62.7064 125.584 62.7064H132.869C133.46 62.7064 133.987 63.0776 134.189 63.632L144.292 89.9904L154.464 63.632C154.666 63.0776 155.193 62.711 155.784 62.711H163.124C164.105 62.711 164.783 63.687 164.444 64.6035L149.745 103.018C149.543 103.573 149.016 103.939 148.425 103.939H139.985C139.398 103.939 138.876 103.577 138.67 103.027V103.018Z" fill="#6063FD"/>
<path d="M188.586 104.466C181.7 104.466 175.807 102.336 171.541 98.2984C167.395 94.3758 165.113 88.7989 165.113 82.5989C165.113 69.9742 174.373 60.8092 187.129 60.8092C199.886 60.8092 208.688 69.8642 208.688 82.828C208.688 83.7261 208.591 85.0367 208.532 85.7378C208.495 86.1823 208.124 86.526 207.675 86.526H176.646C177.296 88.8173 178.602 90.7373 180.462 92.1258C182.643 93.7571 185.535 94.6186 188.82 94.6186C193.141 94.6186 196.573 93.2485 199.317 90.4303C199.67 90.0683 200.252 90.0866 200.582 90.4669L205.718 96.3691C205.998 96.6899 206.002 97.1619 205.728 97.4873C201.883 102.051 195.959 104.462 188.591 104.462L188.586 104.466ZM197.686 78.4426C196.623 73.3973 192.573 70.1941 187.129 70.1941C181.686 70.1941 177.704 73.3973 176.517 78.4426H197.686Z" fill="#6063FD"/>
</g>
<defs>
<clipPath id="clip0_14_69">
<rect width="249" height="104.466" fill="white"/>
</clipPath>
</defs>
</svg>
